<svg width="153" height="16" viewBox="0 0 153 16" fill="none" xmlns="http://www.w3.org/2000/svg">
<path d="M11.7394 0.0078125H8.16022C8.02287 0.0078125 7.90976 0.116182 7.90976 0.247774V5.85977H4.08011V0.247774C4.08011 0.116182 3.967 0.0078125 3.82965 0.0078125H0.250462C0.113112 0.0078125 0 0.116182 0 0.247774V15.466C0 15.5976 0.113112 15.7059 0.250462 15.7059H3.82157C3.95892 15.7059 4.07203 15.5976 4.07203 15.466V9.35856H7.90168V15.466C7.90168 15.5976 8.0148 15.7059 8.15215 15.7059H11.7394C11.8768 15.7059 11.9899 15.5976 11.9899 15.466V0.247774C11.9899 0.116182 11.8768 0.0078125 11.7394 0.0078125Z" fill="#121418"/>
<path d="M20.4049 3.36719C19.3464 3.36719 18.3123 3.522 17.3427 3.82389C16.3813 4.12578 15.4683 4.50507 14.6281 4.96177C14.5069 5.02369 14.4665 5.17077 14.5311 5.28688L15.7996 7.52394C15.8642 7.64005 16.0177 7.68649 16.1389 7.62457C16.8014 7.3072 17.4397 7.04401 18.0214 6.85824C18.587 6.67246 19.1525 6.57957 19.7019 6.57957C20.4695 6.57957 21.0431 6.71116 21.4148 6.97435C21.7056 7.18335 21.8915 7.44653 21.9803 7.78712C20.6634 7.87227 19.5161 8.0116 18.5708 8.20512C17.5447 8.42186 16.6883 8.70826 16.0258 9.05659C15.3471 9.42041 14.8462 9.86937 14.5311 10.3957C14.216 10.9221 14.0625 11.5414 14.0625 12.2303C14.0625 12.7566 14.1675 13.252 14.3614 13.701C14.5634 14.15 14.8462 14.5447 15.2098 14.8853C15.5734 15.2259 16.0177 15.4968 16.5429 15.6826C17.06 15.8684 17.6417 15.969 18.288 15.969C19.096 15.969 19.8959 15.8065 20.6553 15.4968C21.3098 15.2259 21.9238 14.8931 22.4893 14.506L22.6913 15.4968C22.7156 15.613 22.8206 15.6904 22.9418 15.6904H25.8666C26.0039 15.6904 26.117 15.582 26.117 15.4504V8.82437C26.117 6.98983 25.5999 5.60425 24.5738 4.69859C23.5478 3.81615 22.15 3.36719 20.4049 3.36719ZM22.0288 11.8665C21.6491 12.1374 21.2532 12.3619 20.8331 12.5476C20.3968 12.7412 19.9282 12.8418 19.4272 12.8418C18.9586 12.8418 18.587 12.7644 18.3284 12.6096C18.1022 12.478 17.9972 12.2767 17.9972 11.9903C17.9972 11.7891 18.0537 11.5955 18.1669 11.4175C18.28 11.2395 18.49 11.0769 18.7809 10.9376C19.1041 10.7828 19.5484 10.6512 20.1059 10.5505C20.623 10.4577 21.2613 10.3803 22.0207 10.3338L22.0288 11.8665Z" fill="#121418"/>
<path d="M39.0342 11.7428C38.9938 11.6886 38.9372 11.6499 38.8645 11.6344C38.7999 11.619 38.7272 11.6344 38.6706 11.6731C38.2666 11.9596 37.798 12.2073 37.2809 12.4163C36.78 12.6175 36.2225 12.7259 35.6247 12.7259C34.6794 12.7259 33.9361 12.455 33.3543 11.9131C32.7726 11.3635 32.4898 10.6359 32.4898 9.68379C32.4898 8.73169 32.7807 8.00406 33.3867 7.45448C33.9845 6.91263 34.7763 6.63396 35.7459 6.63396C36.578 6.63396 37.4345 6.92811 38.2747 7.50092C38.3878 7.57833 38.5413 7.5551 38.6221 7.44673L40.2784 5.32579C40.3592 5.22516 40.3431 5.08583 40.2461 5.00068C39.7048 4.53624 39.0261 4.14146 38.2343 3.83184C36.6669 3.22806 34.5743 3.22032 32.813 3.79313C31.9404 4.0718 31.1648 4.48205 30.5023 5.01616C29.8398 5.55027 29.2985 6.21597 28.9026 6.99777C28.5067 7.77958 28.3047 8.68524 28.3047 9.68379C28.3047 10.6746 28.4824 11.5803 28.8379 12.3621C29.1934 13.1439 29.6944 13.8173 30.3245 14.3514C30.9547 14.8855 31.6981 15.2958 32.5383 15.5744C33.3705 15.8531 34.2916 16.0002 35.2772 16.0002C36.1256 16.0002 37.0143 15.8609 37.9273 15.5822C38.8403 15.3035 39.6805 14.8468 40.44 14.2431C40.537 14.1656 40.5612 14.0263 40.4885 13.9257L39.0342 11.7428Z" fill="#121418"/>
<path d="M50.5304 8.66957L54.9741 4.05612C55.0387 3.98645 55.063 3.88583 55.0226 3.79294C54.9822 3.70779 54.8933 3.64586 54.7883 3.64586H50.8697C50.797 3.64586 50.7324 3.67683 50.6839 3.72327L46.5957 7.91872V0.239961C46.5957 0.10837 46.4826 0 46.3453 0H42.7661C42.6287 0 42.5156 0.10837 42.5156 0.239961V15.4582C42.5156 15.5897 42.6287 15.6981 42.7661 15.6981H46.3453C46.4826 15.6981 46.5957 15.5897 46.5957 15.4582V12.687L48.0985 11.2859L51.0717 15.5897C51.1202 15.6594 51.201 15.6981 51.2818 15.6981H55.1518C55.2488 15.6981 55.3296 15.6439 55.3781 15.5665C55.4185 15.4891 55.4185 15.3885 55.3619 15.3188L50.5304 8.66957Z" fill="#121418"/>
<path d="M66.5341 5.03136C66.0412 4.505 65.4111 4.09474 64.6677 3.80059C63.9244 3.50645 63.068 3.35938 62.1146 3.35938C61.2744 3.35938 60.4503 3.50645 59.6747 3.79285C58.891 4.07926 58.188 4.505 57.5821 5.04684C56.9761 5.58869 56.4833 6.25439 56.1197 7.02846C55.7561 7.80253 55.5703 8.69271 55.5703 9.66804C55.5703 10.6666 55.7561 11.5568 56.1197 12.3308C56.4833 13.1049 56.9842 13.7706 57.6063 14.3124C58.2284 14.8543 58.9718 15.2723 59.812 15.551C60.6442 15.8296 61.5572 15.9767 62.5267 15.9767C63.3589 15.9767 64.2234 15.8528 65.0798 15.6051C65.9443 15.3574 66.7361 15.0169 67.4309 14.5834C67.544 14.5137 67.5763 14.3744 67.5198 14.266L66.3563 12.2225C66.2917 12.1064 66.1382 12.0599 66.017 12.1218C65.4999 12.3773 64.9909 12.5708 64.5142 12.7024C64.0456 12.8262 63.5366 12.8882 63.0115 12.8882C62.1712 12.8882 61.4521 12.7024 60.8623 12.3308C60.3533 12.0135 60.014 11.5258 59.8201 10.8524H67.641C67.7622 10.8524 67.8591 10.775 67.8914 10.6588C67.9238 10.5118 67.9561 10.3105 67.9965 10.0396C68.0288 9.77641 68.0449 9.47452 68.0449 9.15715C68.0449 8.34438 67.9157 7.57031 67.6652 6.87365C67.4067 6.17699 67.0269 5.54999 66.5341 5.03136ZM59.7716 8.24375C59.9251 7.67868 60.1998 7.2452 60.5957 6.96654C61.0643 6.63369 61.5895 6.46339 62.1874 6.46339C62.9307 6.46339 63.472 6.64917 63.7952 7.00524C64.0779 7.33035 64.2476 7.7406 64.288 8.23601H59.7716V8.24375V8.24375Z" fill="#121418"/>
<path d="M81.7033 3.85485C81.3316 3.6923 80.9681 3.56845 80.6206 3.49104C80.2732 3.40589 79.8127 3.36719 79.2552 3.36719C78.2453 3.36719 77.2838 3.60715 76.4032 4.08707C75.676 4.48185 75.0297 5.0624 74.4722 5.8055L74.246 3.86259C74.2298 3.73874 74.1248 3.64585 73.9955 3.64585H71.0708C70.9334 3.64585 70.8203 3.75422 70.8203 3.88581V15.4581C70.8203 15.5897 70.9334 15.6981 71.0708 15.6981H74.65C74.7873 15.6981 74.9004 15.5897 74.9004 15.4581V9.49007C75.3933 8.52248 75.975 7.83356 76.6375 7.44653C77.3162 7.05175 78.011 6.8505 78.7139 6.8505C79.1502 6.8505 79.5138 6.87372 79.7965 6.9279C80.0874 6.98209 80.4187 7.05949 80.7822 7.16786C80.8469 7.19109 80.9196 7.17561 80.9842 7.14464C81.0408 7.11368 81.0893 7.05949 81.1054 6.98983L81.8326 4.11803C81.873 4.01741 81.8164 3.90129 81.7033 3.85485Z" fill="#121418"/>
<path d="M93.0655 9.48234C93.8331 9.11079 94.4714 8.57668 94.9642 7.88776C95.5136 7.12917 95.7883 6.15385 95.7883 4.985C95.7883 4.04838 95.6186 3.25109 95.2712 2.60861C94.9238 1.96613 94.4552 1.44751 93.8573 1.06047C93.2756 0.68118 92.5889 0.402516 91.8213 0.239961C91.0699 0.0851475 90.2539 0 89.3894 0H83.7661C83.6287 0 83.5156 0.10837 83.5156 0.239961V15.4582C83.5156 15.5897 83.6287 15.6981 83.7661 15.6981H87.3453C87.4826 15.6981 87.5957 15.5897 87.5957 15.4582V10.2177H89.0662L92.0394 15.5743C92.0798 15.6517 92.1687 15.7059 92.2657 15.7059H96.2812C96.37 15.7059 96.4508 15.6594 96.4993 15.582C96.5478 15.5046 96.5478 15.4117 96.4993 15.342L93.0655 9.48234ZM89.1066 7.00532H87.6038V3.22013H89.1066C90.0115 3.22013 90.6983 3.35946 91.1346 3.62264C91.5466 3.87034 91.7486 4.3193 91.7486 4.97726C91.7486 6.36284 90.9083 7.00532 89.1066 7.00532Z" fill="#121418"/>
<path d="M103.585 3.36719C102.526 3.36719 101.492 3.522 100.522 3.82389C99.561 4.12578 98.648 4.50507 97.8077 4.96177C97.6866 5.02369 97.6462 5.17077 97.7108 5.28688L98.9793 7.52394C99.0439 7.64005 99.1974 7.68649 99.3186 7.62457C99.9811 7.3072 100.619 7.04401 101.201 6.85824C101.767 6.67246 102.332 6.57957 102.882 6.57957C103.649 6.57957 104.223 6.71116 104.594 6.97435C104.885 7.18335 105.071 7.44653 105.16 7.78712C103.843 7.87227 102.696 8.0116 101.751 8.20512C100.724 8.42186 99.868 8.70826 99.2055 9.05659C98.5268 9.42041 98.0259 9.86937 97.7108 10.3957C97.3957 10.9221 97.2422 11.5414 97.2422 12.2303C97.2422 12.7566 97.3472 13.252 97.5411 13.701C97.7431 14.15 98.0259 14.5447 98.3895 14.8853C98.753 15.2259 99.1974 15.4968 99.7226 15.6826C100.24 15.8684 100.821 15.969 101.468 15.969C102.276 15.969 103.076 15.8065 103.835 15.4968C104.489 15.2259 105.103 14.8931 105.669 14.506L105.871 15.4968C105.895 15.613 106 15.6904 106.121 15.6904H109.046C109.184 15.6904 109.297 15.582 109.297 15.4504V8.82437C109.297 6.98983 108.78 5.60425 107.754 4.69859C106.736 3.81615 105.338 3.36719 103.585 3.36719ZM105.209 11.8665C104.829 12.1374 104.433 12.3619 104.013 12.5476C103.576 12.7412 103.108 12.8418 102.607 12.8418C102.138 12.8418 101.767 12.7644 101.508 12.6096C101.282 12.478 101.177 12.2767 101.177 11.9903C101.177 11.7891 101.233 11.5955 101.347 11.4175C101.46 11.2395 101.67 11.0769 101.961 10.9376C102.284 10.7828 102.728 10.6512 103.286 10.5505C103.803 10.4577 104.441 10.3803 105.2 10.3338V11.8665H105.209V11.8665Z" fill="#121418"/>
<path d="M119.63 3.36719C118.684 3.36719 117.844 3.5607 117.133 3.93226C116.551 4.24189 116.026 4.6057 115.55 5.01595L115.348 3.85485C115.323 3.73874 115.218 3.65359 115.097 3.65359H112.172C112.035 3.65359 111.922 3.76196 111.922 3.89355V15.4659C111.922 15.5975 112.035 15.7058 112.172 15.7058H115.752C115.889 15.7058 116.002 15.5975 116.002 15.4659V7.84131C116.382 7.48523 116.729 7.22205 117.06 7.03627C117.384 6.85824 117.771 6.76535 118.216 6.76535C118.789 6.76535 119.185 6.91242 119.395 7.19883C119.622 7.5162 119.743 8.04256 119.743 8.76245V15.4581C119.743 15.5897 119.856 15.6981 119.993 15.6981H123.572C123.71 15.6981 123.823 15.5897 123.823 15.4581V8.32123C123.823 6.81179 123.484 5.60425 122.821 4.72181C122.159 3.82389 121.076 3.36719 119.63 3.36719Z" fill="#121418"/>
<path d="M139.331 15.3266L134.499 8.66957L138.943 4.05612C139.008 3.98645 139.032 3.88582 138.991 3.79294C138.951 3.70779 138.862 3.64586 138.757 3.64586H134.839C134.766 3.64586 134.701 3.67683 134.653 3.72327L130.564 7.91872V0.239961C130.564 0.10837 130.451 0 130.314 0H126.735C126.597 0 126.484 0.10837 126.484 0.239961V15.4582C126.484 15.5897 126.597 15.6981 126.735 15.6981H130.314C130.451 15.6981 130.564 15.5897 130.564 15.4582V12.687L132.067 11.2859L135.032 15.5975C135.081 15.6672 135.162 15.7059 135.242 15.7059H139.113C139.209 15.7059 139.29 15.6517 139.339 15.5743C139.387 15.4969 139.379 15.3962 139.331 15.3266Z" fill="#121418"/>
<path d="M152.747 15.7059C152.885 15.7059 152.998 15.5976 152.998 15.466V0.247774C152.998 0.116182 152.885 0.0078125 152.747 0.0078125H141.25C141.113 0.0078125 141 0.116182 141 0.247774V15.466C141 15.5976 141.113 15.7059 141.25 15.7059H152.747V15.7059Z" fill="#32C766"/>
</svg>
