<svg xmlns="http://www.w3.org/2000/svg" width="100" height="100" viewBox="0 0 24 24" fill="#f1efed">
    <path d="M20.45 20.45h-3.56v-5.57c0-1.33-.03-3.04-1.85-3.04-1.85 0-2.13 1.45-2.13 2.95v5.66H9.35V9h3.41v1.56h.05c.47-.89 1.63-1.83 3.35-1.83 3.58 0 4.24 2.36 4.24 5.43v6.29zM5.34 7.43c-1.14 0-2.06-.92-2.06-2.06s.92-2.06 2.06-2.06 2.06.92 2.06 2.06-.92 2.06-2.06 2.06zm1.78 13.02H3.56V9h3.56v11.45zM22.22 0H1.78C.8 0 0 .8 0 1.78v20.44C0 23.2.8 24 1.78 24h20.44c.98 0 1.78-.8 1.78-1.78V1.78C24 .8 23.2 0 22.22 0z"/>
  </svg>